<svg width="238" height="239" viewBox="0 0 238 239" fill="none" xmlns="http://www.w3.org/2000/svg">
<g filter="url(#filter0_d_42_5)">
<path fill-rule="evenodd" clip-rule="evenodd" d="M233.834 162.458C225.061 201.369 189.912 230.458 147.887 230.458C99.256 230.458 59.8335 191.507 59.8335 143.458C59.8335 95.4085 99.256 56.4575 147.887 56.4575C189.912 56.4575 225.061 85.5465 233.834 124.458H197.979C190.247 104.572 170.735 90.4575 147.887 90.4575C126.602 90.4575 108.213 102.706 99.5454 120.458H149.911V132.458H95.4019C94.6438 136.007 94.245 139.686 94.245 143.458C94.245 147.23 94.6438 150.909 95.4019 154.458H149.911V166.458H99.5454C108.213 184.21 126.602 196.458 147.887 196.458C170.735 196.458 190.247 182.344 197.979 162.458H233.834Z" fill="#0B3C33"/>
<path fill-rule="evenodd" clip-rule="evenodd" d="M233.834 162.458C225.061 201.369 189.912 230.458 147.887 230.458C99.256 230.458 59.8335 191.507 59.8335 143.458C59.8335 95.4085 99.256 56.4575 147.887 56.4575C189.912 56.4575 225.061 85.5465 233.834 124.458H197.979C190.247 104.572 170.735 90.4575 147.887 90.4575C126.602 90.4575 108.213 102.706 99.5454 120.458H149.911V132.458H95.4019C94.6438 136.007 94.245 139.686 94.245 143.458C94.245 147.23 94.6438 150.909 95.4019 154.458H149.911V166.458H99.5454C108.213 184.21 126.602 196.458 147.887 196.458C170.735 196.458 190.247 182.344 197.979 162.458H233.834Z" fill="#FFBB00" fill-opacity="0.2"/>
</g>
<path fill-rule="evenodd" clip-rule="evenodd" d="M54.672 117.722C64.979 80.0349 99.089 51.9919 140.139 51.1569C140.316 51.1539 140.493 51.1509 140.67 51.1479L147.212 22.171C149.157 13.551 143.747 4.98595 135.128 3.04095L125.689 0.909952C117.07 -1.03605 108.505 4.37395 106.559 12.994L97.453 53.3289L73.043 14.0269C68.381 6.52094 58.574 4.30694 51.139 9.08294L42.729 14.4849C35.294 19.2599 33.047 29.217 37.709 36.723L62.12 76.0259L22.627 67.1099C14.007 65.1639 5.442 70.5749 3.496 79.1939L1.226 89.2539C-0.720005 97.8729 4.68999 106.439 13.309 108.384L54.672 117.722Z" fill="white"/>
<path fill-rule="evenodd" clip-rule="evenodd" d="M54.672 117.722C64.979 80.0349 99.089 51.9919 140.139 51.1569C140.316 51.1539 140.493 51.1509 140.67 51.1479L147.212 22.171C149.157 13.551 143.747 4.98595 135.128 3.04095L125.689 0.909952C117.07 -1.03605 108.505 4.37395 106.559 12.994L97.453 53.3289L73.043 14.0269C68.381 6.52094 58.574 4.30694 51.139 9.08294L42.729 14.4849C35.294 19.2599 33.047 29.217 37.709 36.723L62.12 76.0259L22.627 67.1099C14.007 65.1639 5.442 70.5749 3.496 79.1939L1.226 89.2539C-0.720005 97.8729 4.68999 106.439 13.309 108.384L54.672 117.722Z" fill="#FF3C00" fill-opacity="0.9"/>
<defs>
<filter id="filter0_d_42_5" x="55.8335" y="56.4575" width="182" height="182" filterUnits="userSpaceOnUse" color-interpolation-filters="sRGB">
<feFlood flood-opacity="0" result="BackgroundImageFix"/>
<feColorMatrix in="SourceAlpha" type="matrix" values="0 0 0 0 0 0 0 0 0 0 0 0 0 0 0 0 0 0 127 0" result="hardAlpha"/>
<feOffset dy="4"/>
<feGaussianBlur stdDeviation="2"/>
<feComposite in2="hardAlpha" operator="out"/>
<feColorMatrix type="matrix" values="0 0 0 0 1 0 0 0 0 0.733333 0 0 0 0 0 0 0 0 0.58 0"/>
<feBlend mode="normal" in2="BackgroundImageFix" result="effect1_dropShadow_42_5"/>
<feBlend mode="normal" in="SourceGraphic" in2="effect1_dropShadow_42_5" result="shape"/>
</filter>
</defs>
</svg>
